<svg width="64" height="64" viewBox="0 0 64 64" fill="none" xmlns="http://www.w3.org/2000/svg">
  <rect x="4" y="4" width="56" height="56" rx="14" fill="#18181B"/>
  <rect x="10" y="10" width="44" height="44" rx="10" fill="#27272A"/>

  <rect x="17" y="34" width="5" height="12" rx="2" fill="#E4E4E7"/>
  <rect x="25" y="28" width="5" height="18" rx="2" fill="#D4D4D8"/>
  <rect x="33" y="22" width="5" height="24" rx="2" fill="#A1A1AA"/>

  <path d="M44 20C44 18.9 44.9 18 46 18C47.1 18 48 18.9 48 20V44C48 45.1 47.1 46 46 46C44.9 46 44 45.1 44 44V20Z" fill="#FAFAFA"/>
  <path d="M48.5 20L43 28.2C42.4 29.1 41.2 29.3 40.3 28.7C39.4 28.1 39.2 26.9 39.8 26L45.3 17.8C45.9 16.9 47.1 16.7 48 17.3C48.9 17.9 49.1 19.1 48.5 20Z" fill="#FAFAFA"/>
</svg>
